# xmcd
# 
# Track frame offsets:
#     150
#     10838
#     23714
#     37210
#     55411
#     83600
#     109149
#     153774
#     187885
#     217341
#     241633
#     260416
#     274040
#     288408
#     303679
#     320443
# 
# Disc length: 4548
# 
# Revision: 2
# Processed by: cddbd v1.5.2PL0 Copyright (c) Steve Scherf et al.
# Submitted via: fre:ac v1.0.17
# 
DISCID=da11c210
DTITLE=Miles DAVIS - Les Triomphes du Jazz 2- 9
DYEAR=2003
DGENRE=Jazz
TTITLE0=Morpheus
TTITLE1=Down
TTITLE2=Blue room
TTITLE3=Conception
TTITLE4=Out of the blue
TTITLE5=Denial
TTITLE6=Bluing
TTITLE7=Dig
TTITLE8=My old flame
TTITLE9=It's only a paper moon
TTITLE10=Dear old Stockholm
TTITLE11=Chance it
TTITLE12=Donna
TTITLE13=Woody'n you
TTITLE14=Yesterdays
TTITLE15=How deep is the Ocean
EXTD=
EXTT0=
EXTT1=
EXTT2=
EXTT3=
EXTT4=
EXTT5=
EXTT6=
EXTT7=
EXTT8=
EXTT9=
EXTT10=
EXTT11=
EXTT12=
EXTT13=
EXTT14=
EXTT15=
PLAYORDER=
